/* XPM */
static char *_04bfc33a4304648ecc2c15ab6032be7Q5ccQPum0McxaBDG[] = {
/* columns rows colors chars-per-pixel */
"61 61 43 1 ",
"  c #20B0B0",
". c #007C7C",
"X c #004040",
"o c #007070",
"O c #20B4B4",
"+ c #48C0C0",
"@ c #009898",
"# c #008C8C",
"$ c #007878",
"% c #74C8C8",
"& c #9CDCDC",
"* c #008484",
"= c #005858",
"- c #B8E8E8",
"; c #00A4A4",
": c gray66",
"> c #D0D0D0",
", c #C0C0C0",
"< c #7C7C7C",
"1 c #646464",
"2 c gray44",
"3 c gray55",
"4 c #989898",
"5 c #B4AC00",
"6 c #E4D800",
"7 c #FCF400",
"8 c #2C2C2C",
"9 c gray22",
"0 c gray33",
"q c #B4B4B4",
"w c #585400",
"e c #848400",
"r c #007474",
"t c #404000",
"y c #006C6C",
"u c #484848",
"i c #CCC400",
"p c #706C00",
"a c black",
"s c #D8F4F4",
"d c #9C9C00",
"f c #202020",
"g c white",
/* pixels */
"   .Xo     .Xo     .Xo     .XoOO++ .Xo+++  .Xo     .Xo @##@#$",
"   $.#     $.#     $.#     $.#O+%& $.#++   $.#     $.#@###@#$",
"   *====================================================#@@#$",
"    .$ooooooooooooooooooooooooooooooooooooooooooooooooo=#@@#$",
"*- & #################################################o=@*-#$",
"o* -+;;;;;;;;;;;;;;;;;    OOOOO+O+O+O+OOOO   ;;;;;@@@#o=.o*#$",
".# -%;;;;;;;;;;;;;;;     OOOOO+O+O+O+OOOO   ;;;;;@@@@#o=$.##$",
";  -%;;;;;;;;;;;;;     OOOO+O+O+O+O+OOOO   ;;;;;@;@@@#o=@;;#$",
"   -%;;;;;;;;;;;     OOOOO+O+O+O+O+OOOO   ; ;;;@;@@###o=@;;#$",
"   -%;;;;;;;;      OOOO+O+O+O+O+O+OOOO   ; ;;;@;@@####o=@; #$",
"   -%;;;;;;      OOOOO+O+O+O+O+O+OOOO   ; ;;;@;@@@@###o=;; #$",
"   -%;;;;      OOOOOO+O+O+O+O+O+OOOO   ; ;;;@;@@@@####o=;  #$",
"*- -%;;       OOOOOO+O+O+O+O+O+OOOO   ; ;;;@;@@@@#####o=@*-#$",
"o* -%       OOOOO+O+O+O+O+O+O+OOOO     ;;;;;@@@@###*##o=.o*#$",
".# -%     OOOOOO+O+O+O+O+O+O+OOOO O   ;;;;;@@@@####*##o=$.##$",
";  -%   OOOOOOO+O+O+O+O+O+O+OOOO O   ;;;;;@;@@#@##*###o=;; #$",
"   -% OOOOOOOO+O+O+O+O+O+O+OOOO O   ;;;;;@;@@#@###*###o=;  #$",
"   -%OOOOOOOO+O+O+O+O+O+O+O+OO O   ;;;;;@;@@#@########o=;  #$",
"   -%OOOOO+O+O+O+O+O+O+O+O+OO O   ; ;;;@;@@@@####*####o=   #$",
"   -%OOOO+O+O+O+O+O+O+O+O+OO O   ; ;;;;;@@@@####*#####o=   #$",
"*- -%OOO+O+O+O+O+O+O+O+O+OO O   ; ;;;;;@@@@#@##*####@#o=@*-#$",
"o* -%OO+O+O+O+O+O+O+O+O+OO O   ; ;;;;;@@@@#@##*#######o=.o*#$",
".# -%O+O+O+O+O+O+O+O+O+OO O   ; ;;;;;@@@@#@##*#*####@#o=$.##$",
";  -%+O+O+O+O+O+O+O+O+OO O     ;;;;;@;@@#@##*#*####@##o=;;;#$",
"   -%O+O+O+O+:>>>>>>>,, O     ;;;;;@;@@#@##*#*######@#o= ;;#$",
" OO-%+O+O+O+ <122<<34:,O     ;;;;;@;@@@@####*#*####@##o=;;@#$",
"OOO-%O+567+ .819:2<0>4q     ;;;;;@;@@@@#@##*#*####@#@#o=;@*#$",
"OOO-%+$we7O;.811122<<3q    ; ;;;@;@@@@#@##*#*#*####@@#o=;#.#$",
"*-O-%*rte6%#.8111122<<q   ; ;;;;;@@@@#@##*#*#*####@#@#o=#$+#$",
"o*O- *#te6+#.81111122<:  ; ;;;;;@@@@#@##*#*#*#*##@#@@#o=.y$#$",
".#+-@*&te6+#.80ueii722: ; ;;;;;@@@@#@####*#*#*####@@@#o=$.##$",
";+%%@*%tei+#.8u8paai12:; ;;;;;@;@@#@####*#*#*####@#@@#o=..@#$",
"%%&O@*%tei+#.898paai11: ;;;;;@;@@#@#@##*#*#*#*##@#@@@#o=.#@#$",
"%&& @*%tei+#.888w88i11:;;;;;@;@@@@#@##*#*#*#*####@@@@#o=*#;#$",
"&&- @*+te5+#.888wwpe11:;;;;@;@@@@#@##*#*#*#*####@#@@@#o=*#;#$",
"--- @*+te5+#.8888888114;;;@;@@@@#@##*#*#*#*####@#@@@@#o=#@ #$",
"O-s @*+ted+#.888888u114;;@;@@@@#@####*#*#*#*####@@@@@#o=#.&#$",
".O- @*#rtpO#.899uu01114;;;@@@@#@####*#*#*#*####@#@@@@#o=.o.#$",
" %-O@*$$*OO#.89f2018313;;@;@@#@####*#*#*#*####@#@@@@;#o=$.##$",
"%-&O@***OOO#.8890001113;@;@@#@#@##*#*#*#*######@@@@@@#o=*@;#$",
"-&&O@*#OOO #.8888888881@;@@@@#@##*#*#*#*#*####@#@@@@;#o=#@;#$",
"&&%O@@OOOO #..........@;@@@@#@####*#*#*#*####@#@@@@;@#o=@; #$",
"&%%O@OOOO  ##########;;@@@@#@####*#*#*#*####@#@@@@@@;#o=@; #$",
"%+++ OOO       ; ;;;;;@@@@#@####*#*#*#*######@#@@@@;@#o=;; #$",
"*-+-OOO       ; ;;;;;@@@@#@####*#*#*#*#*####@#@@@@@@;#o=@*-#$",
"o*+-+O       ; ;;;;;@@@@#@####*#*#*#*#*####@#@@@@@@;;#o=.o*#$",
".#+-%       ; ; ;;;@;@@#@#@##*#*#*#*#*######@#@@@@;@;#o=$.##$",
";++-%      ; ; ;;;@;@@#@#@####*#*#*#*######@#@@@@@@;;#o=;; #$",
"++O-%     ; ; ;;;@;@@@@#@####*#*#*#*#*####@#@@@@@@;@;#o=;; #$",
"+OO-%    ; ; ;;;@;@@@@#@####*#*#*#*#*######@#@@@@@@;;#o=;; #$",
"OOO-%   ; ; ; ;@;@@@@#@####*#*#*#*#*######@#@@@@@@;;;#o=;; #$",
"OOO-%  ; ; ; ;;;@@@@#@####*#*#*#*#*######@#@@@@@@;@;;#o=;  #$",
"*-O-%   ; ; ;;;@@@@#@####*###*#*#*#*####@#@#@@@@@@;;;#o=@*-#$",
"o*O-%  ; ; ;;;@@@@#@########*#*#*#*######@#@@@@@@;@;;;$=.o*#$",
".# -%%%%%%%%%%%%%%%%%%+++OO ;;;; O++++++++++++OOOOOOOO.=$.##$",
";  -------------------&&&&%%+++%%&&&&&&&&&&&&&&&&%%%%+#.;; #$",
"            ;;;;@@@@@@@@#**.....*##@@@@@@;;                #$",
"   @*-     @*-;@@@@@oO@#**.$o@..*#@@oO@@@; @*-     @*-     #$",
"   .o*     .o*@@@@@.Xo#**..oX=.**#@.Xo@@;; .o*     .o*     #$",
"   $.#     $.#@@@@@$.##**..oo$**#@@$.#@@;  $.#     $.#     #$",
"0000000000000000000000000000000000000000000000000000000000000"
};
