/* XPM */
static char *d393e6bb907749daae2eeff452d538adS6wEBC8bs4ZRyswZ[] = {
/* columns rows colors chars-per-pixel */
"20 20 2 1 ",
"  c black",
". c #4D6DF3",
/* pixels */
"    ....    ....    ",
"    ....    ....    ",
"    ....    ....    ",
"    ....    ....    ",
"    ....    ....    ",
"    ....    ....    ",
"    ....    ....    ",
"    ....    ....    ",
"    ....    ....    ",
"    ....    ....    ",
"    ....    ....    ",
"    ....    ....    ",
"    ....    ....    ",
"    ....    ....    ",
"    ....    ....    ",
"    ....    ....    ",
"    ....    ....    ",
"    ....    ....    ",
"    ....    ....    ",
"    ....    ....    "
};
